<mxfile host="app.diagrams.net" modified="2022-08-12T08:33:06.539Z" agent="5.0 (X11; Linux x86_64) AppleWebKit/537.36 (KHTML, like Gecko) Chrome/97.0.4692.99 Safari/537.36" etag="OYJ8htfaecINeyBp2flc" version="20.2.3" type="github">
  <diagram name="Page-1" id="13e1069c-82ec-6db2-03f1-153e76fe0fe0">
    <mxGraphModel dx="2794" dy="966" grid="1" gridSize="10" guides="1" tooltips="1" connect="1" arrows="1" fold="1" page="1" pageScale="1" pageWidth="1100" pageHeight="850" background="none" math="0" shadow="0">
      <root>
        <mxCell id="0" />
        <mxCell id="1" parent="0" />
        <mxCell id="NBUXA40TTOA3BeRuOu_9-2" value="&lt;ol&gt;&lt;li&gt;system\core\init\init.cpp&lt;/li&gt;&lt;li&gt;system\core\init\ueventd.cpp&lt;br&gt;&lt;/li&gt;&lt;li&gt;system\core\init\watchdogd.cpp&lt;/li&gt;&lt;li&gt;&lt;/li&gt;&lt;li&gt;system\core\init\init.cpp&lt;br&gt;&lt;/li&gt;&lt;li&gt;&lt;br&gt;&lt;/li&gt;&lt;li&gt;Value 3&lt;/li&gt;&lt;/ol&gt;" style="text;strokeColor=none;fillColor=none;html=1;whiteSpace=wrap;verticalAlign=middle;overflow=hidden;" parent="1" vertex="1">
          <mxGeometry x="-1030" y="30" width="1060" height="80" as="geometry" />
        </mxCell>
        <mxCell id="NBUXA40TTOA3BeRuOu_9-3" value="init.cpp" style="shape=umlLifeline;perimeter=lifelinePerimeter;whiteSpace=wrap;html=1;container=1;collapsible=0;recursiveResize=0;outlineConnect=0;" parent="1" vertex="1">
          <mxGeometry x="-1020" y="190" width="60" height="620" as="geometry" />
        </mxCell>
        <mxCell id="NBUXA40TTOA3BeRuOu_9-8" value="" style="html=1;points=[];perimeter=orthogonalPerimeter;" parent="NBUXA40TTOA3BeRuOu_9-3" vertex="1">
          <mxGeometry x="25" y="70" width="10" height="550" as="geometry" />
        </mxCell>
        <mxCell id="NBUXA40TTOA3BeRuOu_9-17" value="挂载目录" style="edgeStyle=orthogonalEdgeStyle;html=1;align=left;spacingLeft=2;endArrow=block;rounded=0;entryX=1;entryY=0;exitX=1.048;exitY=0.316;exitDx=0;exitDy=0;exitPerimeter=0;" parent="NBUXA40TTOA3BeRuOu_9-3" source="NBUXA40TTOA3BeRuOu_9-8" edge="1">
          <mxGeometry x="0.6007" relative="1" as="geometry">
            <mxPoint x="40" y="140" as="sourcePoint" />
            <Array as="points">
              <mxPoint x="60" y="139" />
              <mxPoint x="60" y="160" />
            </Array>
            <mxPoint x="35" y="160" as="targetPoint" />
            <mxPoint as="offset" />
          </mxGeometry>
        </mxCell>
        <mxCell id="NBUXA40TTOA3BeRuOu_9-19" value="初始化&lt;br&gt;linux log系统" style="edgeStyle=orthogonalEdgeStyle;html=1;align=left;spacingLeft=2;endArrow=block;rounded=0;" parent="NBUXA40TTOA3BeRuOu_9-3" edge="1">
          <mxGeometry x="0.0145" relative="1" as="geometry">
            <mxPoint x="35" y="170" as="sourcePoint" />
            <Array as="points">
              <mxPoint x="60" y="170" />
              <mxPoint x="60" y="189" />
            </Array>
            <mxPoint x="35" y="189" as="targetPoint" />
            <mxPoint as="offset" />
          </mxGeometry>
        </mxCell>
        <mxCell id="IWm-taD8-fj9oU0irWkf-2" value="selinux初始化" style="edgeStyle=orthogonalEdgeStyle;html=1;align=left;spacingLeft=2;endArrow=block;rounded=0;exitX=1.067;exitY=0.235;exitDx=0;exitDy=0;exitPerimeter=0;" parent="NBUXA40TTOA3BeRuOu_9-3" source="NBUXA40TTOA3BeRuOu_9-8" edge="1">
          <mxGeometry relative="1" as="geometry">
            <mxPoint x="35" y="315" as="sourcePoint" />
            <Array as="points">
              <mxPoint x="60" y="199" />
              <mxPoint x="60" y="220" />
            </Array>
            <mxPoint x="36" y="220" as="targetPoint" />
          </mxGeometry>
        </mxCell>
        <mxCell id="NBUXA40TTOA3BeRuOu_9-5" value="main" style="endArrow=open;endSize=12;dashed=1;html=1;rounded=0;" parent="1" edge="1">
          <mxGeometry x="-0.2" width="160" relative="1" as="geometry">
            <mxPoint x="-1040" y="250" as="sourcePoint" />
            <mxPoint x="-990" y="250" as="targetPoint" />
            <mxPoint as="offset" />
          </mxGeometry>
        </mxCell>
        <mxCell id="NBUXA40TTOA3BeRuOu_9-6" value="ueventd.cpp" style="shape=umlLifeline;perimeter=lifelinePerimeter;whiteSpace=wrap;html=1;container=1;collapsible=0;recursiveResize=0;outlineConnect=0;" parent="1" vertex="1">
          <mxGeometry x="-940" y="190" width="80" height="620" as="geometry" />
        </mxCell>
        <mxCell id="NBUXA40TTOA3BeRuOu_9-9" value="" style="html=1;points=[];perimeter=orthogonalPerimeter;" parent="NBUXA40TTOA3BeRuOu_9-6" vertex="1">
          <mxGeometry x="35" y="70" width="10" height="30" as="geometry" />
        </mxCell>
        <mxCell id="NBUXA40TTOA3BeRuOu_9-11" value="启动main" style="html=1;verticalAlign=bottom;endArrow=block;rounded=0;entryX=0.046;entryY=0.652;entryDx=0;entryDy=0;entryPerimeter=0;exitX=1;exitY=0.034;exitDx=0;exitDy=0;exitPerimeter=0;" parent="1" source="NBUXA40TTOA3BeRuOu_9-8" target="NBUXA40TTOA3BeRuOu_9-9" edge="1">
          <mxGeometry width="80" relative="1" as="geometry">
            <mxPoint x="-980" y="280" as="sourcePoint" />
            <mxPoint x="-900" y="280" as="targetPoint" />
          </mxGeometry>
        </mxCell>
        <mxCell id="NBUXA40TTOA3BeRuOu_9-12" value="watchdogd.cpp" style="shape=umlLifeline;perimeter=lifelinePerimeter;whiteSpace=wrap;html=1;container=1;collapsible=0;recursiveResize=0;outlineConnect=0;" parent="1" vertex="1">
          <mxGeometry x="-840" y="190" width="100" height="620" as="geometry" />
        </mxCell>
        <mxCell id="NBUXA40TTOA3BeRuOu_9-13" value="" style="html=1;points=[];perimeter=orthogonalPerimeter;" parent="NBUXA40TTOA3BeRuOu_9-12" vertex="1">
          <mxGeometry x="45" y="100" width="10" height="30" as="geometry" />
        </mxCell>
        <mxCell id="NBUXA40TTOA3BeRuOu_9-14" value="启动main" style="html=1;verticalAlign=bottom;endArrow=block;rounded=0;entryX=0.133;entryY=0.656;entryDx=0;entryDy=0;entryPerimeter=0;exitX=1.083;exitY=0.09;exitDx=0;exitDy=0;exitPerimeter=0;" parent="1" source="NBUXA40TTOA3BeRuOu_9-8" target="NBUXA40TTOA3BeRuOu_9-13" edge="1">
          <mxGeometry width="80" relative="1" as="geometry">
            <mxPoint x="-980" y="310" as="sourcePoint" />
            <mxPoint x="-800" y="310" as="targetPoint" />
          </mxGeometry>
        </mxCell>
        <mxCell id="NBUXA40TTOA3BeRuOu_9-20" value="signal_handler.cpp" style="shape=umlLifeline;perimeter=lifelinePerimeter;whiteSpace=wrap;html=1;container=1;collapsible=0;recursiveResize=0;outlineConnect=0;" parent="1" vertex="1">
          <mxGeometry x="-720" y="190" width="120" height="620" as="geometry" />
        </mxCell>
        <mxCell id="NBUXA40TTOA3BeRuOu_9-30" value="" style="html=1;points=[];perimeter=orthogonalPerimeter;" parent="NBUXA40TTOA3BeRuOu_9-20" vertex="1">
          <mxGeometry x="55" y="210" width="10" height="80" as="geometry" />
        </mxCell>
        <mxCell id="NBUXA40TTOA3BeRuOu_9-22" value="创建socketpair父进程监控子进程的状态" style="html=1;verticalAlign=bottom;endArrow=block;rounded=0;entryX=0.18;entryY=0.582;entryDx=0;entryDy=0;entryPerimeter=0;" parent="1" edge="1">
          <mxGeometry x="0.0249" y="10" width="80" relative="1" as="geometry">
            <mxPoint x="-980" y="430" as="sourcePoint" />
            <mxPoint x="-663.2" y="430.01" as="targetPoint" />
            <mxPoint as="offset" />
          </mxGeometry>
        </mxCell>
        <mxCell id="NBUXA40TTOA3BeRuOu_9-23" value="service.cpp/ServiceParser" style="shape=umlLifeline;perimeter=lifelinePerimeter;whiteSpace=wrap;html=1;container=1;collapsible=0;recursiveResize=0;outlineConnect=0;" parent="1" vertex="1">
          <mxGeometry x="-570" y="190" width="170" height="620" as="geometry" />
        </mxCell>
        <mxCell id="NBUXA40TTOA3BeRuOu_9-24" value="" style="html=1;points=[];perimeter=orthogonalPerimeter;" parent="NBUXA40TTOA3BeRuOu_9-23" vertex="1">
          <mxGeometry x="80" y="155" width="10" height="80" as="geometry" />
        </mxCell>
        <mxCell id="NBUXA40TTOA3BeRuOu_9-29" value="ReapOneProcess&lt;br&gt;等待子进程退出信号" style="edgeStyle=orthogonalEdgeStyle;html=1;align=left;spacingLeft=2;endArrow=block;rounded=0;exitX=1.014;exitY=0.126;exitDx=0;exitDy=0;exitPerimeter=0;" parent="NBUXA40TTOA3BeRuOu_9-23" source="NBUXA40TTOA3BeRuOu_9-24" edge="1">
          <mxGeometry x="-0.1351" relative="1" as="geometry">
            <mxPoint x="55" y="165" as="sourcePoint" />
            <Array as="points">
              <mxPoint x="130" y="165" />
              <mxPoint x="130" y="210" />
              <mxPoint x="90" y="210" />
            </Array>
            <mxPoint x="90" y="210" as="targetPoint" />
            <mxPoint as="offset" />
          </mxGeometry>
        </mxCell>
        <mxCell id="IWm-taD8-fj9oU0irWkf-14" value="" style="html=1;points=[];perimeter=orthogonalPerimeter;" parent="NBUXA40TTOA3BeRuOu_9-23" vertex="1">
          <mxGeometry x="80" y="350" width="10" height="40" as="geometry" />
        </mxCell>
        <mxCell id="IWm-taD8-fj9oU0irWkf-15" value="std::make_unique(sp)创建ServiceParser&lt;br&gt;并通过AddSectionParser添加到section_parsers_" style="html=1;verticalAlign=bottom;endArrow=block;rounded=0;entryX=-0.048;entryY=0.227;entryDx=0;entryDy=0;entryPerimeter=0;" parent="NBUXA40TTOA3BeRuOu_9-23" target="IWm-taD8-fj9oU0irWkf-13" edge="1">
          <mxGeometry x="-0.0159" y="-1" width="80" relative="1" as="geometry">
            <mxPoint x="90" y="370" as="sourcePoint" />
            <mxPoint x="170" y="370" as="targetPoint" />
            <mxPoint as="offset" />
          </mxGeometry>
        </mxCell>
        <mxCell id="NBUXA40TTOA3BeRuOu_9-25" value="ReapAnyOutstandingChildren" style="html=1;verticalAlign=bottom;endArrow=block;rounded=0;entryX=-0.1;entryY=0.833;entryDx=0;entryDy=0;entryPerimeter=0;startArrow=none;exitX=1.144;exitY=0.144;exitDx=0;exitDy=0;exitPerimeter=0;" parent="1" source="NBUXA40TTOA3BeRuOu_9-30" target="NBUXA40TTOA3BeRuOu_9-24" edge="1">
          <mxGeometry x="0.0813" y="2" width="80" relative="1" as="geometry">
            <mxPoint x="-650" y="412" as="sourcePoint" />
            <mxPoint x="-570" y="410" as="targetPoint" />
            <mxPoint as="offset" />
          </mxGeometry>
        </mxCell>
        <mxCell id="NBUXA40TTOA3BeRuOu_9-33" value="" style="html=1;verticalAlign=bottom;endArrow=none;rounded=0;exitX=1.06;exitY=0.233;exitDx=0;exitDy=0;exitPerimeter=0;" parent="1" edge="1">
          <mxGeometry width="80" relative="1" as="geometry">
            <mxPoint x="-654.4000000000001" y="410.8149999999998" as="sourcePoint" />
            <mxPoint x="-654" y="411" as="targetPoint" />
          </mxGeometry>
        </mxCell>
        <mxCell id="NBUXA40TTOA3BeRuOu_9-32" value="register_epoll_handler将signal_read_fd注册到epoll" style="html=1;verticalAlign=bottom;endArrow=open;dashed=1;endSize=8;exitX=-0.073;exitY=0.897;rounded=0;exitDx=0;exitDy=0;exitPerimeter=0;" parent="1" source="NBUXA40TTOA3BeRuOu_9-30" target="NBUXA40TTOA3BeRuOu_9-8" edge="1">
          <mxGeometry x="0.0917" relative="1" as="geometry">
            <mxPoint x="-980" y="470" as="targetPoint" />
            <mxPoint as="offset" />
          </mxGeometry>
        </mxCell>
        <mxCell id="IWm-taD8-fj9oU0irWkf-3" value="property_service.cpp" style="shape=umlLifeline;perimeter=lifelinePerimeter;whiteSpace=wrap;html=1;container=1;collapsible=0;recursiveResize=0;outlineConnect=0;" parent="1" vertex="1">
          <mxGeometry x="-380" y="190" width="120" height="620" as="geometry" />
        </mxCell>
        <mxCell id="IWm-taD8-fj9oU0irWkf-6" value="" style="html=1;points=[];perimeter=orthogonalPerimeter;" parent="IWm-taD8-fj9oU0irWkf-3" vertex="1">
          <mxGeometry x="55" y="300" width="10" height="20" as="geometry" />
        </mxCell>
        <mxCell id="IWm-taD8-fj9oU0irWkf-7" value="start_property_service启动属性服务" style="html=1;verticalAlign=bottom;endArrow=block;entryX=0;entryY=0;rounded=0;" parent="1" source="NBUXA40TTOA3BeRuOu_9-8" target="IWm-taD8-fj9oU0irWkf-6" edge="1">
          <mxGeometry relative="1" as="geometry">
            <mxPoint x="-250" y="600" as="sourcePoint" />
          </mxGeometry>
        </mxCell>
        <mxCell id="IWm-taD8-fj9oU0irWkf-8" value="register_epoll_handler将property_set_fd注册到epoll" style="html=1;verticalAlign=bottom;endArrow=open;dashed=1;endSize=8;exitX=0;exitY=0.95;rounded=0;entryX=1.02;entryY=0.451;entryDx=0;entryDy=0;entryPerimeter=0;" parent="1" source="IWm-taD8-fj9oU0irWkf-6" target="NBUXA40TTOA3BeRuOu_9-8" edge="1">
          <mxGeometry relative="1" as="geometry">
            <mxPoint x="-980" y="509" as="targetPoint" />
          </mxGeometry>
        </mxCell>
        <mxCell id="IWm-taD8-fj9oU0irWkf-9" value="init_parser.cpp" style="shape=umlLifeline;perimeter=lifelinePerimeter;whiteSpace=wrap;html=1;container=1;collapsible=0;recursiveResize=0;outlineConnect=0;" parent="1" vertex="1">
          <mxGeometry x="-240" y="190" width="100" height="620" as="geometry" />
        </mxCell>
        <mxCell id="IWm-taD8-fj9oU0irWkf-13" value="" style="html=1;points=[];perimeter=orthogonalPerimeter;" parent="IWm-taD8-fj9oU0irWkf-9" vertex="1">
          <mxGeometry x="45" y="330" width="10" height="170" as="geometry" />
        </mxCell>
        <mxCell id="LSeL3Kkb-pXWRt0sWgxu-4" value="ParseConfigDir/&lt;br&gt;&lt;span style=&quot;font-size: 11px;&quot;&gt;ParseConfigFile&lt;/span&gt;" style="edgeStyle=orthogonalEdgeStyle;html=1;align=left;spacingLeft=2;endArrow=block;rounded=0;exitX=1.017;exitY=0.644;exitDx=0;exitDy=0;exitPerimeter=0;entryX=1.065;entryY=0.819;entryDx=0;entryDy=0;entryPerimeter=0;" edge="1" target="IWm-taD8-fj9oU0irWkf-13" parent="IWm-taD8-fj9oU0irWkf-9" source="IWm-taD8-fj9oU0irWkf-13">
          <mxGeometry relative="1" as="geometry">
            <mxPoint x="60" y="440" as="sourcePoint" />
            <Array as="points">
              <mxPoint x="90" y="439" />
              <mxPoint x="90" y="470" />
              <mxPoint x="56" y="470" />
            </Array>
            <mxPoint x="60" y="460" as="targetPoint" />
          </mxGeometry>
        </mxCell>
        <mxCell id="IWm-taD8-fj9oU0irWkf-10" value="创建parser实例解析init.rc" style="html=1;verticalAlign=bottom;endArrow=block;rounded=0;exitX=1.1;exitY=0.49;exitDx=0;exitDy=0;exitPerimeter=0;" parent="1" source="NBUXA40TTOA3BeRuOu_9-8" target="IWm-taD8-fj9oU0irWkf-13" edge="1">
          <mxGeometry width="80" relative="1" as="geometry">
            <mxPoint x="-980" y="530" as="sourcePoint" />
            <mxPoint x="-200" y="530" as="targetPoint" />
          </mxGeometry>
        </mxCell>
        <mxCell id="IWm-taD8-fj9oU0irWkf-11" value="Action.cpp/ActionParser" style="shape=umlLifeline;perimeter=lifelinePerimeter;whiteSpace=wrap;html=1;container=1;collapsible=0;recursiveResize=0;outlineConnect=0;" parent="1" vertex="1">
          <mxGeometry x="-120" y="190" width="150" height="620" as="geometry" />
        </mxCell>
        <mxCell id="IWm-taD8-fj9oU0irWkf-16" value="" style="html=1;points=[];perimeter=orthogonalPerimeter;" parent="IWm-taD8-fj9oU0irWkf-11" vertex="1">
          <mxGeometry x="70" y="340" width="10" height="50" as="geometry" />
        </mxCell>
        <mxCell id="IWm-taD8-fj9oU0irWkf-12" value="import_parser.cpp/ImportParser" style="shape=umlLifeline;perimeter=lifelinePerimeter;whiteSpace=wrap;html=1;container=1;collapsible=0;recursiveResize=0;outlineConnect=0;" parent="1" vertex="1">
          <mxGeometry x="50" y="190" width="200" height="620" as="geometry" />
        </mxCell>
        <mxCell id="IWm-taD8-fj9oU0irWkf-19" value="" style="html=1;points=[];perimeter=orthogonalPerimeter;" parent="IWm-taD8-fj9oU0irWkf-12" vertex="1">
          <mxGeometry x="95" y="380" width="10" height="50" as="geometry" />
        </mxCell>
        <mxCell id="IWm-taD8-fj9oU0irWkf-17" value="std::make_unique(sp)&lt;br&gt;创建ActionParser并通&lt;br&gt;过AddSectionParser&lt;br&gt;添加到section_parsers_" style="html=1;verticalAlign=bottom;endArrow=block;rounded=0;exitX=0.012;exitY=0.586;exitDx=0;exitDy=0;exitPerimeter=0;entryX=1.07;entryY=0.228;entryDx=0;entryDy=0;entryPerimeter=0;" parent="1" source="IWm-taD8-fj9oU0irWkf-16" target="IWm-taD8-fj9oU0irWkf-13" edge="1">
          <mxGeometry width="80" relative="1" as="geometry">
            <mxPoint x="-150" y="570" as="sourcePoint" />
            <mxPoint x="-180" y="560" as="targetPoint" />
          </mxGeometry>
        </mxCell>
        <mxCell id="IWm-taD8-fj9oU0irWkf-20" value="std::make_unique(sp)创建ImportParser&lt;br&gt;并通过AddSectionParser添加到section_parsers_" style="html=1;verticalAlign=bottom;endArrow=block;rounded=0;exitX=0.017;exitY=0.603;exitDx=0;exitDy=0;exitPerimeter=0;entryX=1.02;entryY=0.472;entryDx=0;entryDy=0;entryPerimeter=0;" parent="1" source="IWm-taD8-fj9oU0irWkf-19" target="IWm-taD8-fj9oU0irWkf-13" edge="1">
          <mxGeometry width="80" relative="1" as="geometry">
            <mxPoint y="600" as="sourcePoint" />
            <mxPoint x="-180" y="600" as="targetPoint" />
          </mxGeometry>
        </mxCell>
        <mxCell id="LSeL3Kkb-pXWRt0sWgxu-2" value="通过ParseConfig解析init.rc" style="html=1;verticalAlign=bottom;endArrow=block;rounded=0;entryX=0.163;entryY=0.71;entryDx=0;entryDy=0;entryPerimeter=0;exitX=0.981;exitY=0.69;exitDx=0;exitDy=0;exitPerimeter=0;" edge="1" parent="1" source="NBUXA40TTOA3BeRuOu_9-8" target="IWm-taD8-fj9oU0irWkf-13">
          <mxGeometry x="-0.0018" y="-1" width="80" relative="1" as="geometry">
            <mxPoint x="-980" y="640" as="sourcePoint" />
            <mxPoint x="-900" y="640" as="targetPoint" />
            <mxPoint as="offset" />
          </mxGeometry>
        </mxCell>
      </root>
    </mxGraphModel>
  </diagram>
</mxfile>
